<?xml version="1.0" encoding="utf-8"?>
<!-- Generator: Adobe Illustrator 16.0.0, SVG Export Plug-In . SVG Version: 6.00 Build 0)  -->
<!DOCTYPE svg PUBLIC "-//W3C//DTD SVG 1.1//EN" "http://www.w3.org/Graphics/SVG/1.1/DTD/svg11.dtd">
<svg version="1.1" id="Layer_1" xmlns="http://www.w3.org/2000/svg" xmlns:xlink="http://www.w3.org/1999/xlink" x="0px" y="0px"
	 width="189.974px" height="189.637px" viewBox="0 0 189.974 189.637" enable-background="new 0 0 189.974 189.637"
	 xml:space="preserve">
<g id="_x38_zbMQ9.tif" opacity="0.05">
	<g>
		<path fill-rule="evenodd" clip-rule="evenodd" d="M21.561,174.414c-8.499,3.898-12.674,3.588-21.561-2.018
			c3.919,0,7.125,0.162,10.311-0.033c6.661-0.408,9.97-4.06,9.868-10.604c-0.219-14.108,3.66-18.729,18.32-20.905
			c-5.223-3.129-8.971,0.762-13.089,1.453c2.235-8.977,13.151-17.867,21.314-17.729c1.389,0.024,2.085,0.861,2.921,1.619
			c9.242,8.383,18.467,16.783,27.715,25.16c1.153,1.045,2.132,2.062,1.705,3.82c-4.359,17.908-17.561,29.592-35.349,27.065
			c-0.134-0.019-0.25-0.169-0.502-0.349c2.405-1.523,4.819-2.937,7.104-4.532c2.617-1.826,4.85-4.039,6.107-7.077
			c1.876-4.533-0.636-10.834-5.041-12.582c-4.557-1.809-8.575,0.648-10.231,6.491c-0.625,2.206-1.229,4.596-1.018,6.823
			c0.428,4.5-1.515,7.627-4.706,10.346c-8.492,7.238-18.429,8.917-30.525,8.076c8.08-3.314,14.86-6.08,17.615-13.758
			c0.671-0.572,0.98-1.438,0.396-2.008C22.38,173.15,21.939,173.988,21.561,174.414z"/>
		<path fill-rule="evenodd" clip-rule="evenodd" d="M99.5,145.112c-0.084,1.616-8.525,11.017-8.971,10.782
			c-0.862-0.453-1.641-1.109-2.365-1.777c-13.307-12.277-26.559-24.615-39.944-36.809c-1.979-1.802-1.83-2.768-0.16-4.644
			c7.216-8.106,7.119-8.128,14.87-0.917c11.31,10.521,22.667,20.992,34.026,31.461C97.89,144.069,98.997,144.74,99.5,145.112z"/>
		<path fill-rule="evenodd" clip-rule="evenodd" d="M106.76,138.694c-1.984,2.108-3.202,3.688-4.708,4.918
			c-1.339,1.093-1.998-0.6-2.708-1.251C85.758,129.912,72.319,117.3,58.601,105c-3.312-2.969-0.001-4.41,0.838-6.084
			c1.036-2.067,2.699-0.721,4,0.486c13.631,12.644,27.279,25.27,40.946,37.875C104.977,137.822,105.791,138.126,106.76,138.694z"/>
		<path fill-rule="evenodd" clip-rule="evenodd" d="M127.097,53.053c0.043-8.721,7.066-15.686,15.836-15.702
			c8.863-0.017,16.209,7.332,16.09,16.096c-0.117,8.555-7.412,15.774-15.971,15.804C134.222,69.281,127.052,62.003,127.097,53.053z
			 M142.852,40.24c-7.207,0.055-12.825,5.762-12.811,13.015c0.015,7.246,5.665,13.007,12.833,13.083
			c7.199,0.076,13.34-6.14,13.203-13.368C155.943,45.906,150.001,40.186,142.852,40.24z"/>
		<path fill-rule="evenodd" clip-rule="evenodd" d="M189.745,7.111c0.633-7.598,0.404-7.835-6.709-6.462
			c-0.164,0.032-0.318,0.105-0.48,0.135c-29.44,5.442-55.334,18.117-77.57,38.171c-1.905,1.718-3.531,2.401-6.155,1.581
			c-4.896-1.531-9.964-2.505-14.918-3.864c-2.386-0.654-3.95-0.359-5.325,2.014c-8.372,14.443-16.89,28.802-25.591,43.584
			c3.152,0.196,3.975-1.72,5.17-2.998c5.683-6.082,11.373-12.16,16.899-18.383c1.694-1.908,2.768-2.188,4.71-0.292
			c1.72,1.679,2.826,2.597,0.877,5.123C74.252,74.016,68.901,83,64.187,92.371c-1.203,2.392-1.309,3.969,0.948,5.978
			c13.677,12.177,27.256,24.467,40.709,36.891c2.265,2.093,3.587,1.801,5.749,0.062c7.135-5.739,14.299-11.438,20.795-17.906
			c1.849-1.842,3.173-3.01,5.571-0.488c2.618,2.75-0.416,3.477-1.405,4.582c-6.998,7.818-14.158,15.492-21.266,23.212
			c16.66-9.833,33.115-19.741,47.938-32.06c1.6-1.328,1.172-2.49,0.543-3.875c-1.852-4.069-3.475-8.269-5.662-12.15
			c-2.053-3.645-1.643-6.269,0.857-9.736C176.174,63.014,187.282,36.71,189.745,7.111z M142.912,71.669
			c-10.431-0.052-18.897-8.573-18.622-18.742c0.273-10.066,8.713-18.309,18.736-18.299c10.301,0.01,18.433,8.406,18.32,18.913
			C161.235,63.886,153.268,71.721,142.912,71.669z"/>
	</g>
</g>
</svg>
