<svg xmlns="http://www.w3.org/2000/svg" width="189.974" height="189.637"><g fill-rule="evenodd" clip-rule="evenodd" opacity=".05"><path d="M21.561 174.414c-8.499 3.898-12.674 3.588-21.561-2.018 3.919 0 7.125.162 10.311-.033 6.661-.408 9.97-4.06 9.868-10.604-.219-14.108 3.66-18.729 18.32-20.905-5.223-3.129-8.971.762-13.089 1.453 2.235-8.977 13.151-17.867 21.314-17.729 1.389.024 2.085.861 2.921 1.619 9.242 8.383 18.467 16.783 27.715 25.16 1.153 1.045 2.132 2.062 1.705 3.82-4.359 17.908-17.561 29.592-35.349 27.065-.134-.019-.25-.169-.502-.349 2.405-1.523 4.819-2.937 7.104-4.532 2.617-1.826 4.85-4.039 6.107-7.077 1.876-4.533-.636-10.834-5.041-12.582-4.557-1.809-8.575.648-10.231 6.491-.625 2.206-1.229 4.596-1.018 6.823.428 4.5-1.515 7.627-4.706 10.346-8.492 7.238-18.429 8.917-30.525 8.076 8.08-3.314 14.86-6.08 17.615-13.758.671-.572.98-1.438.396-2.008-.535-.522-.976.316-1.354.742zM99.5 145.112c-.084 1.616-8.525 11.017-8.971 10.782-.862-.453-1.641-1.109-2.365-1.777-13.307-12.277-26.559-24.615-39.944-36.809-1.979-1.802-1.83-2.768-.16-4.644 7.216-8.106 7.119-8.128 14.87-.917 11.31 10.521 22.667 20.992 34.026 31.461.934.861 2.041 1.532 2.544 1.904zM106.76 138.694c-1.984 2.108-3.202 3.688-4.708 4.918-1.339 1.093-1.998-.6-2.708-1.251-13.586-12.449-27.025-25.061-40.743-37.361-3.312-2.969-.001-4.41.838-6.084 1.036-2.067 2.699-.721 4 .486 13.631 12.644 27.279 25.27 40.946 37.875.592.545 1.406.849 2.375 1.417zM127.097 53.053c.043-8.721 7.066-15.686 15.836-15.702 8.863-.017 16.209 7.332 16.09 16.096-.117 8.555-7.412 15.774-15.971 15.804-8.83.03-16-7.248-15.955-16.198zm15.755-12.813c-7.207.055-12.825 5.762-12.811 13.015.015 7.246 5.665 13.007 12.833 13.083 7.199.076 13.34-6.14 13.203-13.368-.134-7.064-6.076-12.784-13.225-12.73zM189.745 7.111c.633-7.598.404-7.835-6.709-6.462l-.48.135c-29.44 5.442-55.334 18.117-77.57 38.171-1.905 1.718-3.531 2.401-6.155 1.581-4.896-1.531-9.964-2.505-14.918-3.864-2.386-.654-3.95-.359-5.325 2.014-8.372 14.443-16.89 28.802-25.591 43.584 3.152.196 3.975-1.72 5.17-2.998 5.683-6.082 11.373-12.16 16.899-18.383 1.694-1.908 2.768-2.188 4.71-.292 1.72 1.679 2.826 2.597.877 5.123-6.401 8.296-11.752 17.28-16.466 26.651-1.203 2.392-1.309 3.969.948 5.978 13.677 12.177 27.256 24.467 40.709 36.891 2.265 2.093 3.587 1.801 5.749.062 7.135-5.739 14.299-11.438 20.795-17.906 1.849-1.842 3.173-3.01 5.571-.488 2.618 2.75-.416 3.477-1.405 4.582-6.998 7.818-14.158 15.492-21.266 23.212 16.66-9.833 33.115-19.741 47.938-32.06 1.6-1.328 1.172-2.49.543-3.875-1.852-4.069-3.475-8.269-5.662-12.15-2.053-3.645-1.643-6.269.857-9.736 17.21-23.867 28.318-50.171 30.781-79.77zm-46.833 64.558c-10.431-.052-18.897-8.573-18.622-18.742.273-10.066 8.713-18.309 18.736-18.299 10.301.01 18.433 8.406 18.32 18.913-.111 10.345-8.078 18.18-18.434 18.128z"/></g></svg>